#define icon_width 50
#define icon_height 28
static char icon_bits[] = {
  0x00, 0x00, 0x00, 0x00, 0x00, 0x00, 0x00, 0x00, 0x00, 0x00, 0x00, 0x00, 
  0x00, 0x00, 0x00, 0x00, 0x00, 0x08, 0x00, 0x00, 0x00, 0x0E, 0x03, 0x00, 
  0x18, 0x00, 0x00, 0x00, 0x8E, 0x03, 0x00, 0x08, 0x00, 0x00, 0x00, 0x8E, 
  0xE3, 0xF1, 0xF9, 0x00, 0x00, 0x00, 0x9A, 0x32, 0x13, 0x98, 0x01, 0x00, 
  0x00, 0xD6, 0x13, 0x32, 0x18, 0x01, 0x00, 0x00, 0x52, 0xF2, 0xE3, 0x08, 
  0x01, 0x00, 0x00, 0x76, 0x13, 0x80, 0x19, 0x01, 0x00, 0x00, 0x06, 0x33, 
  0x12, 0x09, 0x01, 0x00, 0x00, 0x06, 0xE2, 0xF3, 0x19, 0x01, 0x00, 0x00, 
  0x00, 0x00, 0x00, 0x00, 0x00, 0x00, 0x00, 0x00, 0x00, 0x00, 0x00, 0x00, 
  0x00, 0x00, 0x00, 0x00, 0x00, 0x00, 0x00, 0x00, 0x00, 0x00, 0x00, 0x00, 
  0x00, 0x00, 0x00, 0x00, 0x00, 0x00, 0x00, 0x00, 0x00, 0x00, 0x00, 0x00, 
  0x00, 0xC0, 0x07, 0x00, 0x00, 0x00, 0x00, 0x00, 0x60, 0x0C, 0x00, 0x00, 
  0x00, 0x00, 0x00, 0x30, 0xC0, 0xE3, 0x73, 0x00, 0x00, 0x00, 0x30, 0x60, 
  0x66, 0x4E, 0x00, 0x00, 0x00, 0x10, 0x20, 0x64, 0xC4, 0x00, 0x00, 0x00, 
  0x10, 0x30, 0x64, 0x44, 0x00, 0x00, 0x00, 0x30, 0x20, 0x24, 0xC6, 0x00, 
  0x00, 0x00, 0x60, 0x64, 0x66, 0x46, 0x00, 0x00, 0x00, 0xC0, 0xC7, 0x23, 
  0xC4, 0x00, 0x00, 0x00, 0x00, 0x00, 0x00, 0x00, 0x00, 0x00, 0x00, 0x00, 
  0x00, 0x00, 0x00, 0x00, };
